<?xml version="1.0" encoding="UTF-8" standalone="no"?>
<!-- Generator: Adobe Illustrator 13.0.0, SVG Export Plug-In . SVG Version: 6.00 Build 14948)  -->

<svg
   xmlns:dc="http://purl.org/dc/elements/1.1/"
   xmlns:cc="http://creativecommons.org/ns#"
   xmlns:rdf="http://www.w3.org/1999/02/22-rdf-syntax-ns#"
   xmlns:svg="http://www.w3.org/2000/svg"
   xmlns="http://www.w3.org/2000/svg"
   xmlns:sodipodi="http://sodipodi.sourceforge.net/DTD/sodipodi-0.dtd"
   xmlns:inkscape="http://www.inkscape.org/namespaces/inkscape"
   version="1.1"
   id="Layer_1"
   x="0px"
   y="0px"
   width="1000"
   height="1355.89"
   viewBox="0 0 1000 1355.89"
   xml:space="preserve"
   inkscape:version="0.92.2 (5c3e80d, 2017-08-06)"
   sodipodi:docname="Java Cup.svg"><metadata
     id="metadata33"><rdf:RDF><cc:Work
         rdf:about=""><dc:format>image/svg+xml</dc:format><dc:type
           rdf:resource="http://purl.org/dc/dcmitype/StillImage" /><dc:title></dc:title></cc:Work></rdf:RDF></metadata><defs
     id="defs31" /><sodipodi:namedview
     pagecolor="#ffffff"
     bordercolor="#666666"
     borderopacity="1"
     objecttolerance="10"
     gridtolerance="10"
     guidetolerance="10"
     inkscape:pageopacity="0"
     inkscape:pageshadow="2"
     inkscape:window-width="1366"
     inkscape:window-height="705"
     id="namedview29"
     showgrid="false"
     inkscape:zoom="0.30341309"
     inkscape:cx="862.99104"
     inkscape:cy="778.91776"
     inkscape:window-x="-8"
     inkscape:window-y="-8"
     inkscape:window-maximized="1"
     inkscape:current-layer="Layer_1" /><path
     style="fill:#0b6fb6;fill-opacity:1;stroke-width:3.65455985"
     d="m 322.06087,1048.5843 c 0,0 -51.81435,30.1319 36.87451,40.3281 107.44406,12.2574 162.35748,10.4995 280.76156,-11.9103 0,0 31.12954,19.519 74.60418,36.4251 -265.43067,113.7591 -600.72193,-6.5892 -392.24025,-64.8429"
     id="path5"
     inkscape:connector-curvature="0" /><path
     style="fill:#0b6fb6;fill-opacity:1;stroke-width:3.65455985"
     d="m 289.62665,900.13614 c 0,0 -58.11481,43.0178 30.63983,52.198 114.77511,11.8408 205.41551,12.8093 362.25825,-17.392 0,0 21.69347,21.9931 55.80513,34.0203 -320.92152,93.84166 -678.37037,7.4005 -448.70321,-68.8263"
     id="path7"
     inkscape:connector-curvature="0" /><path
     style="fill:#e11f21;fill-opacity:1;stroke-width:3.65455985"
     d="m 563.05717,648.31864 c 65.402,75.2985 -17.18374,143.0578 -17.18374,143.0578 0,0 166.06685,-85.7287 89.79984,-193.0814 -71.23102,-100.113 -125.85573,-149.85525 169.86029,-321.36006 0,0 -464.17661,115.92994 -242.47639,371.38366"
     id="path9"
     inkscape:connector-curvature="0" /><path
     style="fill:#0b6fb6;fill-opacity:1;stroke-width:3.65455985"
     d="m 914.11053,1158.3856 c 0,0 38.34365,31.5936 -42.22843,56.0354 -153.21012,46.4128 -637.67686,60.4281 -772.259675,1.8491 -48.379061,-21.0466 42.345385,-50.2538 70.883845,-56.3825 29.76274,-6.4539 46.77105,-5.2517 46.77105,-5.2517 -53.80242,-37.9013 -347.75695,74.4215 -149.314344,106.589 541.181844,87.7642 986.522924,-39.5205 846.147554,-102.8393"
     id="path11"
     inkscape:connector-curvature="0" /><path
     style="fill:#0b6fb6;fill-opacity:1;stroke-width:3.65455985"
     d="m 346.97766,746.32664 c 0,0 -246.43063,58.5315 -87.26723,79.7863 67.2037,8.9976 201.17255,6.962 325.96115,-3.4937 101.98415,-8.6029 204.38858,-26.8939 204.38858,-26.8939 0,0 -35.96087,15.4003 -61.97769,33.1652 -250.24598,65.8149 -733.6748216,35.197 -594.50187,-32.1237 117.69875,-56.8941 213.39706,-50.4402 213.39706,-50.4402"
     id="path13"
     inkscape:connector-curvature="0" /><path
     style="fill:#0b6fb6;fill-opacity:1;stroke-width:3.65455985"
     d="m 789.04419,993.42604 c 254.38661,-132.189 136.76825,-259.2216 54.67222,-242.1073 -20.12202,4.1881 -29.09396,7.8171 -29.09396,7.8171 0,0 7.46992,-11.7018 21.73732,-16.767 162.4123,-57.0989 287.31783,168.4057 -52.42832,257.71946 0,0 3.93596,-3.51566 5.11274,-6.66226"
     id="path15"
     inkscape:connector-curvature="0" /><path
     style="fill:#e11f21;fill-opacity:1;stroke-width:3.65455985"
     d="m 635.67327,-2.4664062e-4 c 0,0 140.88328,140.93081664062 -133.62168,357.64252664062 -220.1251,173.84006 -50.19537,272.95906 -0.0914,386.20656 C 373.46956,627.91894 279.17461,525.86534 342.43504,430.8833 435.28645,291.45817 692.51629,223.85984 635.67327,-2.4664062e-4"
     id="path17"
     inkscape:connector-curvature="0" /><path
     style="fill:#0b6fb6;fill-opacity:1;stroke-width:3.65455985"
     d="m 371.97485,1351.6277 c 244.17941,15.6305 619.14457,-8.6722 628.02515,-124.2112 0,0 -17.07045,43.7999 -201.80114,78.584 -208.41224,39.2207 -465.45937,34.6416 -617.91664,9.5055 0.003,0 31.20993,25.8304 191.69263,36.1217"
     id="path19"
     inkscape:connector-curvature="0" /></svg>